<mxfile host="app.diagrams.net" modified="2020-08-19T18:42:03.977Z" agent="5.0 (Macintosh; Intel Mac OS X 10_15_6) AppleWebKit/537.36 (KHTML, like Gecko) Chrome/84.0.4147.125 Safari/537.36" etag="gSGVRWjs5o7aQMK1bw5b" version="13.6.3" type="github">
  <diagram id="C5RBs43oDa-KdzZeNtuy" name="Flowchart">
    <mxGraphModel dx="658" dy="1607" grid="1" gridSize="10" guides="1" tooltips="1" connect="1" arrows="1" fold="1" page="1" pageScale="1" pageWidth="827" pageHeight="1169" math="0" shadow="0">
      <root>
        <mxCell id="WIyWlLk6GJQsqaUBKTNV-0" />
        <mxCell id="WIyWlLk6GJQsqaUBKTNV-1" parent="WIyWlLk6GJQsqaUBKTNV-0" />
        <mxCell id="b8sEk_Su9cXO1HsG_HJd-14" value="" style="edgeStyle=orthogonalEdgeStyle;rounded=0;orthogonalLoop=1;jettySize=auto;html=1;fillColor=#cce5ff;shadow=0;sketch=0;fontStyle=1;fontFamily=Helvetica;labelBackgroundColor=none;labelBorderColor=none;strokeColor=#7EA6E0;fontColor=#4D4D4D;" parent="WIyWlLk6GJQsqaUBKTNV-1" target="b8sEk_Su9cXO1HsG_HJd-13" edge="1">
          <mxGeometry relative="1" as="geometry">
            <mxPoint x="420" y="100" as="sourcePoint" />
          </mxGeometry>
        </mxCell>
        <mxCell id="b8sEk_Su9cXO1HsG_HJd-16" value="" style="edgeStyle=orthogonalEdgeStyle;rounded=0;orthogonalLoop=1;jettySize=auto;html=1;fillColor=#cce5ff;shadow=0;sketch=0;fontStyle=1;fontFamily=Helvetica;labelBackgroundColor=none;labelBorderColor=none;strokeColor=#7EA6E0;fontColor=#4D4D4D;" parent="WIyWlLk6GJQsqaUBKTNV-1" source="b8sEk_Su9cXO1HsG_HJd-13" target="b8sEk_Su9cXO1HsG_HJd-15" edge="1">
          <mxGeometry relative="1" as="geometry" />
        </mxCell>
        <mxCell id="b8sEk_Su9cXO1HsG_HJd-25" value="" style="edgeStyle=orthogonalEdgeStyle;rounded=0;orthogonalLoop=1;jettySize=auto;html=1;fillColor=#cce5ff;shadow=0;sketch=0;fontStyle=1;fontFamily=Helvetica;labelBackgroundColor=none;labelBorderColor=none;strokeColor=#7EA6E0;entryX=0.5;entryY=0;entryDx=0;entryDy=0;fontColor=#4D4D4D;" parent="WIyWlLk6GJQsqaUBKTNV-1" source="b8sEk_Su9cXO1HsG_HJd-13" target="b8sEk_Su9cXO1HsG_HJd-56" edge="1">
          <mxGeometry relative="1" as="geometry">
            <mxPoint x="420" y="345" as="targetPoint" />
          </mxGeometry>
        </mxCell>
        <mxCell id="b8sEk_Su9cXO1HsG_HJd-13" value="Время суток&lt;br&gt;00:01—08:00?" style="rhombus;whiteSpace=wrap;html=1;rounded=1;fillColor=#cce5ff;shadow=0;sketch=0;fontStyle=1;fontFamily=Helvetica;labelBackgroundColor=none;labelBorderColor=none;strokeColor=#7EA6E0;fontColor=#4D4D4D;" parent="WIyWlLk6GJQsqaUBKTNV-1" vertex="1">
          <mxGeometry x="352.5" y="160" width="135" height="130" as="geometry" />
        </mxCell>
        <mxCell id="b8sEk_Su9cXO1HsG_HJd-15" value="Средняя скорость такси&lt;br&gt;50 км/ч" style="whiteSpace=wrap;html=1;rounded=1;fillColor=#d5e8d4;shadow=0;sketch=0;fontStyle=1;fontFamily=Helvetica;labelBackgroundColor=none;labelBorderColor=none;strokeColor=#82b366;fontColor=#4D4D4D;" parent="WIyWlLk6GJQsqaUBKTNV-1" vertex="1">
          <mxGeometry x="550" y="195" width="120" height="60" as="geometry" />
        </mxCell>
        <mxCell id="b8sEk_Su9cXO1HsG_HJd-26" value="" style="edgeStyle=orthogonalEdgeStyle;rounded=0;orthogonalLoop=1;jettySize=auto;html=1;fillColor=#cce5ff;shadow=0;sketch=0;fontStyle=1;fontFamily=Helvetica;labelBackgroundColor=none;labelBorderColor=none;strokeColor=#7EA6E0;exitX=0.5;exitY=1;exitDx=0;exitDy=0;fontColor=#4D4D4D;" parent="WIyWlLk6GJQsqaUBKTNV-1" source="b8sEk_Su9cXO1HsG_HJd-56" edge="1">
          <mxGeometry relative="1" as="geometry">
            <mxPoint x="420" y="485" as="sourcePoint" />
            <mxPoint x="420" y="540" as="targetPoint" />
          </mxGeometry>
        </mxCell>
        <mxCell id="b8sEk_Su9cXO1HsG_HJd-29" value="Средняя скорость такси&lt;br&gt;35 км/ч" style="whiteSpace=wrap;html=1;rounded=1;fillColor=#d5e8d4;shadow=0;sketch=0;fontStyle=1;fontFamily=Helvetica;labelBackgroundColor=none;labelBorderColor=none;strokeColor=#82b366;fontColor=#4D4D4D;" parent="WIyWlLk6GJQsqaUBKTNV-1" vertex="1">
          <mxGeometry x="550" y="385" width="120" height="60" as="geometry" />
        </mxCell>
        <mxCell id="b8sEk_Su9cXO1HsG_HJd-31" value="Средняя скорость такси&lt;br&gt;42 км/ч" style="whiteSpace=wrap;html=1;rounded=1;fillColor=#d5e8d4;shadow=0;sketch=0;fontStyle=1;fontFamily=Helvetica;labelBackgroundColor=none;labelBorderColor=none;strokeColor=#82b366;fontColor=#4D4D4D;" parent="WIyWlLk6GJQsqaUBKTNV-1" vertex="1">
          <mxGeometry x="550" y="575" width="120" height="60" as="geometry" />
        </mxCell>
        <mxCell id="b8sEk_Su9cXO1HsG_HJd-33" value="Средняя скорость такси&lt;br&gt;30 км/ч" style="whiteSpace=wrap;html=1;rounded=1;fillColor=#d5e8d4;shadow=0;sketch=0;fontStyle=1;fontFamily=Helvetica;labelBackgroundColor=none;labelBorderColor=none;strokeColor=#82b366;fontColor=#4D4D4D;" parent="WIyWlLk6GJQsqaUBKTNV-1" vertex="1">
          <mxGeometry x="550" y="765" width="120" height="60" as="geometry" />
        </mxCell>
        <mxCell id="b8sEk_Su9cXO1HsG_HJd-35" value="Средняя скорость такси&lt;br&gt;50 км/ч" style="whiteSpace=wrap;html=1;rounded=1;fillColor=#d5e8d4;shadow=0;sketch=0;fontStyle=1;fontFamily=Helvetica;labelBackgroundColor=none;labelBorderColor=none;strokeColor=#82b366;fontColor=#4D4D4D;" parent="WIyWlLk6GJQsqaUBKTNV-1" vertex="1">
          <mxGeometry x="550" y="955" width="120" height="60" as="geometry" />
        </mxCell>
        <mxCell id="b8sEk_Su9cXO1HsG_HJd-37" value="Ввод&lt;br&gt;времени начала поездки" style="shape=parallelogram;perimeter=parallelogramPerimeter;whiteSpace=wrap;html=1;fixedSize=1;fillColor=#cce5ff;shadow=0;sketch=0;fontStyle=1;fontFamily=Helvetica;labelBackgroundColor=none;labelBorderColor=none;strokeColor=#7EA6E0;fontColor=#4D4D4D;" parent="WIyWlLk6GJQsqaUBKTNV-1" vertex="1">
          <mxGeometry x="355" y="30" width="130" height="70" as="geometry" />
        </mxCell>
        <mxCell id="b8sEk_Su9cXO1HsG_HJd-39" value="" style="edgeStyle=orthogonalEdgeStyle;rounded=0;orthogonalLoop=1;jettySize=auto;html=1;fillColor=#cce5ff;shadow=0;sketch=0;fontStyle=1;fontFamily=Helvetica;labelBackgroundColor=none;labelBorderColor=none;strokeColor=#7EA6E0;fontColor=#4D4D4D;" parent="WIyWlLk6GJQsqaUBKTNV-1" source="b8sEk_Su9cXO1HsG_HJd-38" target="b8sEk_Su9cXO1HsG_HJd-37" edge="1">
          <mxGeometry relative="1" as="geometry" />
        </mxCell>
        <mxCell id="b8sEk_Su9cXO1HsG_HJd-38" value="Начало" style="rounded=1;whiteSpace=wrap;html=1;fillColor=#cce5ff;shadow=0;sketch=0;fontStyle=1;fontFamily=Helvetica;labelBackgroundColor=none;labelBorderColor=none;strokeColor=#7EA6E0;fontColor=#4D4D4D;" parent="WIyWlLk6GJQsqaUBKTNV-1" vertex="1">
          <mxGeometry x="360" y="-90" width="120" height="60" as="geometry" />
        </mxCell>
        <mxCell id="b8sEk_Su9cXO1HsG_HJd-60" value="" style="edgeStyle=orthogonalEdgeStyle;rounded=0;sketch=0;orthogonalLoop=1;jettySize=auto;html=1;shadow=0;labelBackgroundColor=none;strokeColor=#7EA6E0;fontFamily=Helvetica;fontColor=#4D4D4D;" parent="WIyWlLk6GJQsqaUBKTNV-1" source="b8sEk_Su9cXO1HsG_HJd-56" target="b8sEk_Su9cXO1HsG_HJd-29" edge="1">
          <mxGeometry relative="1" as="geometry" />
        </mxCell>
        <mxCell id="b8sEk_Su9cXO1HsG_HJd-56" value="Время суток&lt;br&gt;08:01—12:00?" style="rhombus;whiteSpace=wrap;html=1;rounded=1;fillColor=#cce5ff;shadow=0;sketch=0;fontStyle=1;fontFamily=Helvetica;labelBackgroundColor=none;labelBorderColor=none;strokeColor=#7EA6E0;fontColor=#4D4D4D;" parent="WIyWlLk6GJQsqaUBKTNV-1" vertex="1">
          <mxGeometry x="352.5" y="350" width="135" height="130" as="geometry" />
        </mxCell>
        <mxCell id="b8sEk_Su9cXO1HsG_HJd-61" value="" style="edgeStyle=orthogonalEdgeStyle;rounded=0;sketch=0;orthogonalLoop=1;jettySize=auto;html=1;shadow=0;labelBackgroundColor=none;strokeColor=#7EA6E0;fontFamily=Helvetica;fontColor=#4D4D4D;" parent="WIyWlLk6GJQsqaUBKTNV-1" source="b8sEk_Su9cXO1HsG_HJd-57" target="b8sEk_Su9cXO1HsG_HJd-31" edge="1">
          <mxGeometry relative="1" as="geometry" />
        </mxCell>
        <mxCell id="b8sEk_Su9cXO1HsG_HJd-66" value="" style="edgeStyle=orthogonalEdgeStyle;rounded=0;sketch=0;orthogonalLoop=1;jettySize=auto;html=1;shadow=0;labelBackgroundColor=none;strokeColor=#7EA6E0;fontFamily=Helvetica;fontColor=#4D4D4D;" parent="WIyWlLk6GJQsqaUBKTNV-1" source="b8sEk_Su9cXO1HsG_HJd-57" target="b8sEk_Su9cXO1HsG_HJd-58" edge="1">
          <mxGeometry relative="1" as="geometry" />
        </mxCell>
        <mxCell id="b8sEk_Su9cXO1HsG_HJd-57" value="Время суток&lt;br&gt;12:01—18:00?" style="rhombus;whiteSpace=wrap;html=1;rounded=1;fillColor=#cce5ff;shadow=0;sketch=0;fontStyle=1;fontFamily=Helvetica;labelBackgroundColor=none;labelBorderColor=none;strokeColor=#7EA6E0;fontColor=#4D4D4D;" parent="WIyWlLk6GJQsqaUBKTNV-1" vertex="1">
          <mxGeometry x="352.5" y="540" width="135" height="130" as="geometry" />
        </mxCell>
        <mxCell id="b8sEk_Su9cXO1HsG_HJd-62" value="" style="edgeStyle=orthogonalEdgeStyle;rounded=0;sketch=0;orthogonalLoop=1;jettySize=auto;html=1;shadow=0;labelBackgroundColor=none;strokeColor=#7EA6E0;fontFamily=Helvetica;fontColor=#4D4D4D;" parent="WIyWlLk6GJQsqaUBKTNV-1" source="b8sEk_Su9cXO1HsG_HJd-58" target="b8sEk_Su9cXO1HsG_HJd-33" edge="1">
          <mxGeometry relative="1" as="geometry" />
        </mxCell>
        <mxCell id="b8sEk_Su9cXO1HsG_HJd-67" value="" style="edgeStyle=orthogonalEdgeStyle;rounded=0;sketch=0;orthogonalLoop=1;jettySize=auto;html=1;shadow=0;labelBackgroundColor=none;strokeColor=#7EA6E0;fontFamily=Helvetica;fontColor=#4D4D4D;" parent="WIyWlLk6GJQsqaUBKTNV-1" source="b8sEk_Su9cXO1HsG_HJd-58" target="b8sEk_Su9cXO1HsG_HJd-59" edge="1">
          <mxGeometry relative="1" as="geometry" />
        </mxCell>
        <mxCell id="b8sEk_Su9cXO1HsG_HJd-58" value="Время суток&lt;br&gt;18:01—22:00?" style="rhombus;whiteSpace=wrap;html=1;rounded=1;fillColor=#cce5ff;shadow=0;sketch=0;fontStyle=1;fontFamily=Helvetica;labelBackgroundColor=none;labelBorderColor=none;strokeColor=#7EA6E0;fontColor=#4D4D4D;" parent="WIyWlLk6GJQsqaUBKTNV-1" vertex="1">
          <mxGeometry x="352.5" y="730" width="135" height="130" as="geometry" />
        </mxCell>
        <mxCell id="b8sEk_Su9cXO1HsG_HJd-63" value="" style="edgeStyle=orthogonalEdgeStyle;rounded=0;sketch=0;orthogonalLoop=1;jettySize=auto;html=1;shadow=0;labelBackgroundColor=none;strokeColor=#7EA6E0;fontFamily=Helvetica;fontColor=#4D4D4D;" parent="WIyWlLk6GJQsqaUBKTNV-1" source="b8sEk_Su9cXO1HsG_HJd-59" target="b8sEk_Su9cXO1HsG_HJd-35" edge="1">
          <mxGeometry relative="1" as="geometry" />
        </mxCell>
        <mxCell id="8G0zgKuNj7y9jxrkPod2-68" value="" style="edgeStyle=orthogonalEdgeStyle;rounded=0;orthogonalLoop=1;jettySize=auto;html=1;fontColor=#4D4D4D;strokeColor=#7EA6E0;" parent="WIyWlLk6GJQsqaUBKTNV-1" source="b8sEk_Su9cXO1HsG_HJd-59" target="8G0zgKuNj7y9jxrkPod2-67" edge="1">
          <mxGeometry relative="1" as="geometry" />
        </mxCell>
        <mxCell id="b8sEk_Su9cXO1HsG_HJd-59" value="Время суток&lt;br&gt;22:01—00:00?" style="rhombus;whiteSpace=wrap;html=1;rounded=1;fillColor=#cce5ff;shadow=0;sketch=0;fontStyle=1;fontFamily=Helvetica;labelBackgroundColor=none;labelBorderColor=none;strokeColor=#7EA6E0;fontColor=#4D4D4D;" parent="WIyWlLk6GJQsqaUBKTNV-1" vertex="1">
          <mxGeometry x="352.5" y="920" width="135" height="130" as="geometry" />
        </mxCell>
        <mxCell id="b8sEk_Su9cXO1HsG_HJd-68" value="Нет" style="text;html=1;align=center;verticalAlign=middle;resizable=0;points=[];autosize=1;fontFamily=Helvetica;fontColor=#4D4D4D;" parent="WIyWlLk6GJQsqaUBKTNV-1" vertex="1">
          <mxGeometry x="420" y="290" width="40" height="20" as="geometry" />
        </mxCell>
        <mxCell id="b8sEk_Su9cXO1HsG_HJd-69" value="Нет" style="text;html=1;align=center;verticalAlign=middle;resizable=0;points=[];autosize=1;fontFamily=Helvetica;fontColor=#4D4D4D;" parent="WIyWlLk6GJQsqaUBKTNV-1" vertex="1">
          <mxGeometry x="420" y="480" width="40" height="20" as="geometry" />
        </mxCell>
        <mxCell id="b8sEk_Su9cXO1HsG_HJd-70" value="Нет" style="text;html=1;align=center;verticalAlign=middle;resizable=0;points=[];autosize=1;fontFamily=Helvetica;fontColor=#4D4D4D;" parent="WIyWlLk6GJQsqaUBKTNV-1" vertex="1">
          <mxGeometry x="420" y="670" width="40" height="20" as="geometry" />
        </mxCell>
        <mxCell id="b8sEk_Su9cXO1HsG_HJd-71" value="Нет" style="text;html=1;align=center;verticalAlign=middle;resizable=0;points=[];autosize=1;fontFamily=Helvetica;fontColor=#4D4D4D;" parent="WIyWlLk6GJQsqaUBKTNV-1" vertex="1">
          <mxGeometry x="420" y="860" width="40" height="20" as="geometry" />
        </mxCell>
        <mxCell id="b8sEk_Su9cXO1HsG_HJd-73" value="Да" style="text;html=1;align=center;verticalAlign=middle;resizable=0;points=[];autosize=1;fontFamily=Helvetica;fontColor=#4D4D4D;" parent="WIyWlLk6GJQsqaUBKTNV-1" vertex="1">
          <mxGeometry x="487.5" y="200" width="30" height="20" as="geometry" />
        </mxCell>
        <mxCell id="b8sEk_Su9cXO1HsG_HJd-75" value="Да" style="text;html=1;align=center;verticalAlign=middle;resizable=0;points=[];autosize=1;fontFamily=Helvetica;fontColor=#4D4D4D;" parent="WIyWlLk6GJQsqaUBKTNV-1" vertex="1">
          <mxGeometry x="487.5" y="390" width="30" height="20" as="geometry" />
        </mxCell>
        <mxCell id="b8sEk_Su9cXO1HsG_HJd-77" value="Да" style="text;html=1;align=center;verticalAlign=middle;resizable=0;points=[];autosize=1;fontFamily=Helvetica;fontColor=#4D4D4D;" parent="WIyWlLk6GJQsqaUBKTNV-1" vertex="1">
          <mxGeometry x="487.5" y="770" width="30" height="20" as="geometry" />
        </mxCell>
        <mxCell id="b8sEk_Su9cXO1HsG_HJd-78" value="Да" style="text;html=1;align=center;verticalAlign=middle;resizable=0;points=[];autosize=1;fontFamily=Helvetica;fontColor=#4D4D4D;" parent="WIyWlLk6GJQsqaUBKTNV-1" vertex="1">
          <mxGeometry x="487.5" y="960" width="30" height="20" as="geometry" />
        </mxCell>
        <mxCell id="8G0zgKuNj7y9jxrkPod2-67" value="Ошибка&lt;br&gt;«Вы ввели некорректное время»" style="whiteSpace=wrap;html=1;rounded=1;shadow=0;fontStyle=1;sketch=0;fillColor=#f8cecc;strokeColor=#EA6B66;fontColor=#4D4D4D;" parent="WIyWlLk6GJQsqaUBKTNV-1" vertex="1">
          <mxGeometry x="360" y="1109" width="120" height="71" as="geometry" />
        </mxCell>
        <mxCell id="8G0zgKuNj7y9jxrkPod2-69" value="Нет" style="text;html=1;align=center;verticalAlign=middle;resizable=0;points=[];autosize=1;fontColor=#4D4D4D;" parent="WIyWlLk6GJQsqaUBKTNV-1" vertex="1">
          <mxGeometry x="420" y="1050" width="40" height="20" as="geometry" />
        </mxCell>
        <mxCell id="8G0zgKuNj7y9jxrkPod2-70" value="Да" style="text;html=1;align=center;verticalAlign=middle;resizable=0;points=[];autosize=1;fontColor=#4D4D4D;" parent="WIyWlLk6GJQsqaUBKTNV-1" vertex="1">
          <mxGeometry x="487.5" y="579" width="30" height="20" as="geometry" />
        </mxCell>
      </root>
    </mxGraphModel>
  </diagram>
</mxfile>
